HIERARCHY
ROOT joint_0
{
	OFFSET 0.000000 0.000000 0.000000
	CHANNELS 6 Xposition Yposition Zposition Zrotation Yrotation Xrotation 
	JOINT joint_1
	{
		OFFSET 5.091736 1.614004 124.993042
		CHANNELS 3 Zrotation Yrotation Xrotation
		JOINT joint_2
		{
			OFFSET -7.754517 4.363039 113.797974
			CHANNELS 3 Zrotation Yrotation Xrotation
			JOINT joint_3
			{
				OFFSET -8.706238 5.370684 113.558960
				CHANNELS 3 Zrotation Yrotation Xrotation
				JOINT joint_4
				{
					OFFSET 2.800659 5.843341 158.209106
					CHANNELS 3 Zrotation Yrotation Xrotation
					JOINT joint_5
					{
						OFFSET 20.525452 8.617594 92.185913
						CHANNELS 3 Zrotation Yrotation Xrotation
						End Site
						{
							OFFSET 0.000000 0.000000 0.000000
						}
					}
				}
				JOINT joint_6
				{
					OFFSET -4.183167 -30.671114 90.057007
					CHANNELS 3 Zrotation Yrotation Xrotation
					JOINT joint_7
					{
						OFFSET -24.729675 -138.200195 -6.097900
						CHANNELS 3 Zrotation Yrotation Xrotation
						JOINT joint_8
						{
							OFFSET 16.966858 -51.567780 -315.633057
							CHANNELS 3 Zrotation Yrotation Xrotation
							JOINT joint_9
							{
								OFFSET 129.835388 -40.459091 176.646973
								CHANNELS 3 Zrotation Yrotation Xrotation
								End Site
								{
									OFFSET 0.000000 0.000000 0.000000
								}
							}
						}
					}
				}
				JOINT joint_10
				{
					OFFSET 7.338745 37.199406 87.346069
					CHANNELS 3 Zrotation Yrotation Xrotation
					JOINT joint_11
					{
						OFFSET 20.327698 137.488367 -20.779053
						CHANNELS 3 Zrotation Yrotation Xrotation
						JOINT joint_12
						{
							OFFSET 150.763062 48.206573 -278.419922
							CHANNELS 3 Zrotation Yrotation Xrotation
							JOINT joint_13
							{
								OFFSET 12.571289 -162.355251 152.253906
								CHANNELS 3 Zrotation Yrotation Xrotation
								End Site
								{
									OFFSET 0.000000 0.000000 0.000000
								}
							}
						}
					}
				}
			}
		}
	}
	JOINT joint_14
	{
		OFFSET -7.600342 -77.970001 -95.010986
		CHANNELS 3 Zrotation Yrotation Xrotation
		JOINT joint_15
		{
			OFFSET -2.666199 -21.455009 -443.700989
			CHANNELS 3 Zrotation Yrotation Xrotation
			JOINT joint_16
			{
				OFFSET -22.487976 -19.310196 -481.059006
				CHANNELS 3 Zrotation Yrotation Xrotation
				JOINT joint_17
				{
					OFFSET 177.776611 65.723053 -82.445997
					CHANNELS 3 Zrotation Yrotation Xrotation
					End Site
					{
						OFFSET 0.000000 0.000000 0.000000
					}
				}
			}
		}
	}
	JOINT joint_18
	{
		OFFSET 17.063904 75.900681 -95.447021
		CHANNELS 3 Zrotation Yrotation Xrotation
		JOINT joint_19
		{
			OFFSET -21.510803 8.101997 -443.629944
			CHANNELS 3 Zrotation Yrotation Xrotation
			JOINT joint_20
			{
				OFFSET -7.473022 -28.501774 -481.230011
				CHANNELS 3 Zrotation Yrotation Xrotation
				JOINT joint_21
				{
					OFFSET 177.760559 -64.115177 -83.737001
					CHANNELS 3 Zrotation Yrotation Xrotation
					End Site
					{
						OFFSET 0.000000 0.000000 0.000000
					}
				}
			}
		}
	}
}
MOTION
Frames: 6
Frame Time: 0.016667
-87.538025 8.257703 1119.165039 13.379807 0.528410 1.057644 0.448913 -0.704728 2.006457 0.273693 0.102425 -0.380688 0.349518 -0.124557 0.311638 0.751727 1.116772 -3.388536 0.000000 0.000000 0.000000 2.484925 0.242926 7.972271 12.353438 1.021310 -4.991197 179.709435 37.676498 177.294467 0.000000 0.000000 0.000000 -7.965194 17.531426 -2.889740 -18.566322 5.849123 1.740791 54.696480 -18.998844 114.180224 0.000000 0.000000 0.000000 -9.679036 2.018667 -4.594815 -9.535009 -0.597759 -0.019046 -9.269494 -5.009051 -2.388161 0.000000 0.000000 0.000000 -1.587727 -2.913215 3.079329 -1.449416 5.194260 4.146363 -0.594779 -5.436634 -2.226406 0.000000 0.000000 0.000000 
-87.557251 8.321138 1119.146973 13.367449 0.525288 1.063191 0.457428 -0.690399 1.985455 0.284401 0.100378 -0.375667 0.359208 -0.119494 0.307714 0.752665 1.114056 -3.390661 0.000000 0.000000 0.000000 2.484364 0.230622 7.988284 12.357243 1.009687 -4.988137 179.709476 37.679689 177.296969 0.000000 0.000000 0.000000 -7.993678 17.522574 -2.883209 -18.568022 5.852529 1.747864 54.692208 -19.002325 114.184419 0.000000 0.000000 0.000000 -9.676193 2.011469 -4.617341 -9.533445 -0.584228 -0.001338 -9.266466 -5.001440 -2.389594 0.000000 0.000000 0.000000 -1.585472 -2.915373 3.074460 -1.446619 5.207129 4.136382 -0.591623 -5.433458 -2.223822 0.000000 0.000000 0.000000 
-87.578667 8.386373 1119.126953 13.357624 0.523090 1.069319 0.464609 -0.676735 1.964981 0.293725 0.098616 -0.370426 0.367482 -0.114775 0.303220 0.753360 1.110815 -3.391542 0.000000 0.000000 0.000000 2.483288 0.218594 8.003304 12.363916 0.998329 -4.985258 179.712025 37.685522 177.302822 0.000000 0.000000 0.000000 -8.017943 17.515017 -2.878498 -18.572214 5.853895 1.755338 54.686920 -19.007494 114.191068 0.000000 0.000000 0.000000 -9.674362 2.002829 -4.641209 -9.533012 -0.569595 0.018076 -9.264414 -4.993067 -2.391766 0.000000 0.000000 0.000000 -1.584238 -2.918315 3.069627 -1.444774 5.218584 4.124907 -0.589663 -5.429491 -2.221505 0.000000 0.000000 0.000000 
-87.590614 8.457551 1119.107056 13.351092 0.521550 1.076290 0.469939 -0.664417 1.945374 0.301002 0.096681 -0.366485 0.373863 -0.110411 0.299299 0.752806 1.108019 -3.386787 0.000000 0.000000 0.000000 2.481643 0.209391 8.014802 12.373000 0.987571 -4.979125 179.717660 37.696185 177.313982 0.000000 0.000000 0.000000 -8.035122 17.509553 -2.878073 -18.574018 5.853899 1.764775 54.684961 -19.014672 114.196158 0.000000 0.000000 0.000000 -9.673605 1.994293 -4.665865 -9.533599 -0.555311 0.037538 -9.263424 -4.982748 -2.395141 0.000000 0.000000 0.000000 -1.583677 -2.917877 3.064130 -1.443836 5.222355 4.112488 -0.589564 -5.421372 -2.218549 0.000000 0.000000 0.000000 
-87.599678 8.530014 1119.087036 13.346862 0.520624 1.083933 0.473650 -0.652460 1.925066 0.306787 0.094334 -0.361231 0.378581 -0.105554 0.295118 0.751803 1.104985 -3.379929 0.000000 0.000000 0.000000 2.480689 0.201049 8.023826 12.384894 0.977421 -4.971771 179.726368 37.710483 177.328874 0.000000 0.000000 0.000000 -8.046097 17.505088 -2.880814 -18.575254 5.851660 1.774735 54.684955 -19.023850 114.200941 0.000000 0.000000 0.000000 -9.673739 1.985155 -4.691387 -9.535112 -0.540776 0.057723 -9.263325 -4.970893 -2.399498 0.000000 0.000000 0.000000 -1.583761 -2.916009 3.058592 -1.443591 5.221693 4.098659 -0.590757 -5.410752 -2.215288 0.000000 0.000000 0.000000 
-87.604240 8.607938 1119.062012 13.346275 0.521509 1.092443 0.475188 -0.644735 1.905559 0.310026 0.092774 -0.357616 0.381098 -0.102569 0.292090 0.749535 1.104371 -3.367872 0.000000 0.000000 0.000000 2.480413 0.194149 8.032418 12.396439 0.968399 -4.964353 179.734841 37.724742 177.345838 0.000000 0.000000 0.000000 -8.053086 17.505417 -2.885679 -18.576451 5.850593 1.787430 54.681981 -19.033016 114.205905 0.000000 0.000000 0.000000 -9.675365 1.975256 -4.718938 -9.538086 -0.527133 0.080694 -9.264574 -4.957799 -2.404936 0.000000 0.000000 0.000000 -1.585120 -2.915859 3.052532 -1.444568 5.220158 4.083423 -0.593362 -5.399316 -2.212383 0.000000 0.000000 0.000000 
